#define 1prev_eng_width 70
#define 1prev_eng_height 20
static char 1prev_eng_bits[] = {
 0x00,0x00,0x00,0x00,0x00,0x00,0x00,0x00,0x00,0xe0,0x00,0x00,0x00,0x00,0x00,
 0x00,0x00,0x00,0xe0,0x00,0x00,0x00,0x00,0x00,0x00,0x00,0x00,0xf0,0x00,0x00,
 0x00,0x00,0x00,0x00,0x00,0x00,0xfe,0x00,0x00,0x00,0x00,0x00,0x00,0x00,0x00,
 0xfe,0x00,0xf8,0x01,0x00,0xc0,0x00,0x00,0x00,0xe0,0x00,0x18,0x03,0x00,0x00,
 0x00,0x00,0x00,0xe0,0x00,0x18,0x6f,0xcf,0xd8,0x3c,0x33,0x0f,0xe0,0x00,0x18,
 0xff,0xd9,0xd8,0x66,0xb3,0x19,0xe0,0x00,0xf8,0x9d,0x99,0xcd,0x66,0xb3,0x03,
 0xe0,0x00,0x18,0x8c,0x9f,0xcd,0x66,0x33,0x0e,0xe0,0x00,0x18,0x8c,0x01,0xc7,
 0x66,0x33,0x1c,0xe0,0x00,0x18,0x8c,0x19,0xc7,0x66,0xbb,0x19,0xe0,0x00,0x18,
 0x0c,0x0f,0xc2,0x3c,0x36,0x0f,0xe0,0x00,0x00,0x00,0x00,0x00,0x00,0x00,0x00,
 0xe0,0x00,0x00,0x00,0x00,0x00,0x00,0x00,0x00,0xe0,0x00,0x00,0x00,0x00,0x00,
 0x00,0x00,0x00,0xe0,0x00,0x00,0x00,0x00,0x00,0x00,0x00,0x00,0xe0,0x00,0x00,
 0x00,0x00,0x00,0x00,0x00,0x00,0x00,0x00,0x00,0x00,0x00,0x00,0x00,0x00,0x00
 };
