#define 2next_swe_width 70
#define 2next_swe_height 20
static char 2next_swe_bits[] = {
 0x00,0x00,0x00,0x00,0x00,0x00,0x00,0x00,0x00,0xf0,0x01,0x00,0x00,0x00,0x00,
 0x00,0x00,0x00,0xfc,0x07,0x00,0x00,0x00,0x00,0x00,0x00,0x00,0x1c,0x0f,0x00,
 0x00,0x00,0x00,0x00,0x00,0x00,0x0e,0x0e,0x00,0x00,0x00,0x00,0x00,0x00,0x00,
 0x0e,0x1c,0xe0,0x07,0x00,0x03,0xb0,0x19,0x03,0x0e,0x1c,0x60,0x00,0x00,0x03,
 0x00,0x18,0x03,0x00,0x1c,0x60,0xf0,0xec,0xe7,0xf1,0xbc,0x07,0x00,0x0e,0x60,
 0x98,0x7d,0x33,0x9b,0x19,0x03,0x00,0x0f,0xe0,0x9b,0x1d,0x73,0x80,0x19,0x03,
 0x80,0x07,0x60,0x98,0x0d,0xc3,0xf1,0x19,0x03,0xc0,0x03,0x60,0x98,0x0d,0x83,
 0x9b,0x19,0x03,0xf0,0x01,0x60,0x98,0x0d,0x3b,0x9b,0x59,0x0b,0x78,0x00,0x60,
 0xf0,0x0c,0xe6,0x71,0x33,0x06,0x3c,0x00,0x00,0x00,0x00,0x00,0x00,0x00,0x00,
 0x1e,0x00,0x00,0x00,0x00,0x00,0x00,0x00,0x00,0x0e,0x00,0x00,0x00,0x00,0x00,
 0x00,0x00,0x00,0xfe,0x1f,0x00,0x00,0x00,0x00,0x00,0x00,0x00,0xfe,0x1f,0x00,
 0x00,0x00,0x00,0x00,0x00,0x00,0x00,0x00,0x00,0x00,0x00,0x00,0x00,0x00,0x00
 };
