#define 4next_swe_width 69
#define 4next_swe_height 20
static char 4next_swe_bits[] = {
 0x00,0x00,0x00,0x00,0x00,0x00,0x00,0x00,0x00,0x00,0x07,0x00,0x00,0x00,0x00,
 0x00,0x00,0x00,0x80,0x07,0x00,0x00,0x00,0x00,0x00,0x00,0x00,0x80,0x07,0x00,
 0x00,0x00,0x00,0x00,0x00,0x00,0xc0,0x07,0x00,0x00,0x00,0x00,0x00,0x00,0x00,
 0xc0,0x07,0xe0,0x07,0x00,0x03,0xb0,0x19,0x03,0x60,0x07,0x60,0x00,0x00,0x03,
 0x00,0x18,0x03,0x70,0x07,0x60,0xf0,0xec,0xe7,0xf1,0xbc,0x07,0x30,0x07,0x60,
 0x98,0x7d,0x33,0x9b,0x19,0x03,0x18,0x07,0xe0,0x9b,0x1d,0x73,0x80,0x19,0x03,
 0x1c,0x07,0x60,0x98,0x0d,0xc3,0xf1,0x19,0x03,0x0c,0x07,0x60,0x98,0x0d,0x83,
 0x9b,0x19,0x03,0x0e,0x07,0x60,0x98,0x0d,0x3b,0x9b,0x59,0x0b,0xfe,0x1f,0x60,
 0xf0,0x0c,0xe6,0x71,0x33,0x06,0xfe,0x1f,0x00,0x00,0x00,0x00,0x00,0x00,0x00,
 0x00,0x07,0x00,0x00,0x00,0x00,0x00,0x00,0x00,0x00,0x07,0x00,0x00,0x00,0x00,
 0x00,0x00,0x00,0x00,0x07,0x00,0x00,0x00,0x00,0x00,0x00,0x00,0x00,0x07,0x00,
 0x00,0x00,0x00,0x00,0x00,0x00,0x00,0x00,0x00,0x00,0x00,0x00,0x00,0x00,0x00
 };
